<?xml version="1.0" encoding="UTF-8" standalone="no"?>
<!DOCTYPE svg PUBLIC "-//W3C//DTD SVG 1.1//EN" "http://www.w3.org/Graphics/SVG/1.1/DTD/svg11.dtd">
<svg width="100%" height="100%" viewBox="0 0 1024 1024" version="1.1" xmlns="http://www.w3.org/2000/svg" xmlns:xlink="http://www.w3.org/1999/xlink" xml:space="preserve" xmlns:serif="http://www.serif.com/" style="fill-rule:evenodd;clip-rule:evenodd;stroke-linejoin:round;stroke-miterlimit:2;">
    <g id="Layer_1-2" transform="matrix(0.758796,0,0,0.758796,234.091,236.899)">
        <g id="Template---Icons---App">
            <g id="Layer_1-21" serif:id="Layer_1-2">
                <g>
                    <path d="M168.2,338.2L168.2,193.1L341.4,193.1C341.4,193.1 349,193.7 353.9,194.3C358.1,194.9 360.4,195.3 364.5,196.2C367.4,196.8 369.1,197.2 372,198.1C378,199.8 387,203.7 387,203.7C387,203.7 395.1,207.6 400.1,210.6C405.4,213.7 408.3,215.6 413.2,219.3C417.3,222.5 419.5,224.4 423.2,228C426.5,231.2 431.3,236.7 431.3,236.7C431.3,236.7 435.6,241.9 438.2,245.4C440.8,249 442.2,251 444.4,254.7C446.5,258.3 449.4,264 449.4,264L271.6,459C271.6,459 253.2,457 232.4,445.3C226.9,442.2 220.6,438.4 214.3,432.8C203.1,424.1 197.5,416.6 197.5,416.6C197.5,416.6 189.7,406.7 185.7,399.8C183.6,396.2 181.3,391.9 179.5,388C177.7,384.1 176.4,380.5 176.4,380.5C176.4,380.5 174.8,376.4 173.3,371.2C172.1,367 170.9,362.1 170.2,358.1C169.6,355 169.3,352.3 169,348.8C168.2,343.2 168.2,338.2 168.2,338.2Z" style="fill:url(#_Radial1);fill-rule:nonzero;"/>
                    <g opacity="0.1">
                        <path d="M168.2,338.2L168.2,193.1L341.4,193.1C341.4,193.1 349,193.7 353.9,194.3C358.1,194.9 360.4,195.3 364.5,196.2C367.4,196.8 369.1,197.2 372,198.1C378,199.8 387,203.7 387,203.7C387,203.7 395.1,207.6 400.1,210.6C405.4,213.7 408.3,215.6 413.2,219.3C417.3,222.5 419.5,224.4 423.2,228C426.5,231.2 431.3,236.7 431.3,236.7C431.3,236.7 435.6,241.9 438.2,245.4C440.8,249 442.2,251 444.4,254.7C446.5,258.3 449.4,264 449.4,264L271.6,459C271.6,459 253.2,457 232.4,445.3C226.9,442.2 220.6,438.4 214.3,432.8C203.1,424.1 197.5,416.6 197.5,416.6C197.5,416.6 189.7,406.7 185.7,399.8C183.6,396.2 181.3,391.9 179.5,388C177.7,384.1 176.4,380.5 176.4,380.5C176.4,380.5 174.8,376.4 173.3,371.2C172.1,367 170.9,362.1 170.2,358.1C169.6,355 169.3,352.3 169,348.8C168.2,343.2 168.2,338.2 168.2,338.2Z" style="fill-rule:nonzero;"/>
                    </g>
                    <g opacity="0.2">
                        <g opacity="0.1">
                            <path d="M168.2,338.2L168.2,193.1L341.4,193.1C341.4,193.1 349,193.7 353.9,194.3C358.1,194.9 360.4,195.3 364.5,196.2C367.4,196.8 369.1,197.2 372,198.1C378,199.8 387,203.7 387,203.7C387,203.7 395.1,207.6 400.1,210.6C405.4,213.7 408.3,215.6 413.2,219.3C417.3,222.5 419.5,224.4 423.2,228C426.5,231.2 431.3,236.7 431.3,236.7C431.3,236.7 435.6,241.9 438.2,245.4C440.8,249 442.2,251 444.4,254.7C446.5,258.3 449.4,264 449.4,264L271.6,459C271.6,459 253.2,457 232.4,445.3C226.9,442.2 220.6,438.4 214.3,432.8C203.1,424.1 197.5,416.6 197.5,416.6C197.5,416.6 189.7,406.7 185.7,399.8C183.6,396.2 181.3,391.9 179.5,388C177.7,384.1 176.4,380.5 176.4,380.5C176.4,380.5 174.8,376.4 173.3,371.2C172.1,367 170.9,362.1 170.2,358.1C169.6,355 169.3,352.3 169,348.8C168.2,343.2 168.2,338.2 168.2,338.2Z" style="fill-rule:nonzero;"/>
                        </g>
                    </g>
                    <g opacity="0.2">
                        <g opacity="0.2">
                            <g opacity="0.1">
                                <path d="M168.2,338.2L168.2,193.1L341.4,193.1C341.4,193.1 349,193.7 353.9,194.3C358.1,194.9 360.4,195.3 364.5,196.2C367.4,196.8 369.1,197.2 372,198.1C378,199.8 387,203.7 387,203.7C387,203.7 395.1,207.6 400.1,210.6C405.4,213.7 408.3,215.6 413.2,219.3C417.3,222.5 419.5,224.4 423.2,228C426.5,231.2 431.3,236.7 431.3,236.7C431.3,236.7 435.6,241.9 438.2,245.4C440.8,249 442.2,251 444.4,254.7C446.5,258.3 449.4,264 449.4,264L271.6,459C271.6,459 253.2,457 232.4,445.3C226.9,442.2 220.6,438.4 214.3,432.8C203.1,424.1 197.5,416.6 197.5,416.6C197.5,416.6 189.7,406.7 185.7,399.8C183.6,396.2 181.3,391.9 179.5,388C177.7,384.1 176.4,380.5 176.4,380.5C176.4,380.5 174.8,376.4 173.3,371.2C172.1,367 170.9,362.1 170.2,358.1C169.6,355 169.3,352.3 169,348.8C168.2,343.2 168.2,338.2 168.2,338.2Z" style="fill-rule:nonzero;"/>
                            </g>
                        </g>
                    </g>
                    <g>
                        <path d="M271.6,459L271.6,388C271.6,371.8 275.9,347.6 289,325.1C295.3,314.3 304.5,303.2 315.2,294C320.1,289.7 325,286.4 330.8,282.8C338.5,278 350.8,270.7 370,266.6C379.3,264.6 390,264.1 402.4,264.1C419.8,263.5 449.1,264.1 449.1,264.1C451.6,269.7 454.7,277.8 456.6,284.6C457.4,287.7 458.3,291.9 459.1,297.1C460.1,303.3 461,305.1 461,310.3L461,460.9L271.6,459Z" style="fill:url(#_Radial2);fill-rule:nonzero;"/>
                    </g>
                    <g>
                        <path d="M460.9,460.9L460.9,530C460.9,544.2 458.2,564.5 448.5,584.5C439.5,603 424.3,621.4 403,634.7C391.6,641.8 367.5,655 331.5,654C314.1,654.6 283.5,654 283.5,654C281.6,650.3 279.7,644.7 277.8,639C277,636.7 275.2,631.6 274.1,625.3C273.6,622.2 273.2,620.8 272.9,617.8C272.2,611.9 271.7,605.3 271.7,605.3L271.7,459L460.9,460.9Z" style="fill:url(#_Radial3);fill-rule:nonzero;"/>
                    </g>
                    <g>
                        <path d="M629.1,266L629.1,343.9C629.1,366.9 615.5,412.6 571.8,441.1C559.3,449.2 538.2,461 500.2,461L461,461L461,316.4C461,304.6 459.8,297.1 457.3,287.1C454.4,275.4 449.2,264.1 449.2,264.1L606.8,264.1C606.8,264.1 614.7,264 620.5,264.7C622.8,265 623.8,265.1 625.5,265.3C626.7,265.5 628.4,265.9 629.1,266Z" style="fill:rgb(64,231,221);fill-rule:nonzero;"/>
                    </g>
                </g>
            </g>
        </g>
    </g>
    <defs>
        <radialGradient id="_Radial1" cx="0" cy="0" r="1" gradientUnits="userSpaceOnUse" gradientTransform="matrix(730.477,-487.536,467.407,700.317,217.433,353.414)"><stop offset="0" style="stop-color:rgb(2,65,76);stop-opacity:1"/><stop offset="1" style="stop-color:rgb(9,111,124);stop-opacity:1"/></radialGradient>
        <radialGradient id="_Radial2" cx="0" cy="0" r="1" gradientUnits="userSpaceOnUse" gradientTransform="matrix(-981.035,-458.924,497.034,-1062.5,1073.71,608.398)"><stop offset="0" style="stop-color:rgb(9,111,124);stop-opacity:1"/><stop offset="1" style="stop-color:rgb(4,159,154);stop-opacity:1"/></radialGradient>
        <radialGradient id="_Radial3" cx="0" cy="0" r="1" gradientUnits="userSpaceOnUse" gradientTransform="matrix(-515.492,-133.027,183.657,-711.685,775.775,586.988)"><stop offset="0" style="stop-color:rgb(64,231,221);stop-opacity:1"/><stop offset="1" style="stop-color:rgb(4,159,154);stop-opacity:1"/></radialGradient>
    </defs>
</svg>
