<?xml version="1.0" encoding="UTF-8" standalone="no"?>
<!DOCTYPE svg PUBLIC "-//W3C//DTD SVG 1.1//EN" "http://www.w3.org/Graphics/SVG/1.1/DTD/svg11.dtd">
<svg width="100%" height="100%" viewBox="0 0 79 79" version="1.1" xmlns="http://www.w3.org/2000/svg" xmlns:xlink="http://www.w3.org/1999/xlink" xml:space="preserve" xmlns:serif="http://www.serif.com/" style="fill-rule:evenodd;clip-rule:evenodd;stroke-linejoin:round;stroke-miterlimit:2;">
    <g id="Regular-S" transform="matrix(1,0,0,1,-6.83594,74.6582)">
        <path d="M46.24,4.15C51.644,4.15 56.722,3.125 61.475,1.074C66.227,-0.977 70.418,-3.825 74.048,-7.471C77.677,-11.117 80.526,-15.316 82.593,-20.068C84.66,-24.821 85.693,-29.883 85.693,-35.254C85.693,-40.625 84.66,-45.687 82.593,-50.44C80.526,-55.192 77.669,-59.391 74.023,-63.037C70.378,-66.683 66.178,-69.531 61.426,-71.582C56.673,-73.633 51.595,-74.658 46.191,-74.658C40.82,-74.658 35.759,-73.633 31.006,-71.582C26.253,-69.531 22.07,-66.683 18.457,-63.037C14.844,-59.391 12.004,-55.192 9.937,-50.44C7.869,-45.687 6.836,-40.625 6.836,-35.254C6.836,-29.883 7.869,-24.821 9.937,-20.068C12.004,-15.316 14.852,-11.117 18.481,-7.471C22.111,-3.825 26.302,-0.977 31.055,1.074C35.807,3.125 40.869,4.15 46.24,4.15Z" style="fill-rule:nonzero;"/>
        <path d="M60.84,-16.846C60.254,-16.26 59.521,-15.967 58.643,-15.967C57.764,-15.967 57.031,-16.26 56.445,-16.846L47.07,-26.514C46.517,-27.165 46.24,-27.865 46.24,-28.613C46.24,-29.46 46.501,-30.143 47.022,-30.664C47.542,-31.185 48.226,-31.445 49.072,-31.445C49.886,-31.445 50.553,-31.169 51.074,-30.615L54.834,-26.807L55.811,-25.635L55.713,-27.1L55.713,-51.563C55.713,-52.409 55.998,-53.101 56.567,-53.638C57.137,-54.175 57.845,-54.443 58.691,-54.443C59.505,-54.443 60.181,-54.175 60.718,-53.638C61.255,-53.101 61.523,-52.409 61.523,-51.563L61.523,-27.148L61.475,-25.684L62.5,-26.807L66.211,-30.615C66.764,-31.169 67.432,-31.445 68.213,-31.445C69.059,-31.445 69.751,-31.185 70.288,-30.664C70.825,-30.143 71.094,-29.46 71.094,-28.613C71.094,-27.897 70.785,-27.197 70.166,-26.514L60.84,-16.846ZM31.738,-53.516C32.389,-54.134 33.122,-54.435 33.936,-54.419C34.749,-54.403 35.449,-54.102 36.035,-53.516L45.41,-43.848C45.996,-43.262 46.289,-42.578 46.289,-41.797C46.289,-40.951 46.029,-40.259 45.508,-39.722C44.987,-39.185 44.303,-38.916 43.457,-38.916C42.643,-38.916 41.976,-39.176 41.455,-39.697L37.744,-43.603L36.719,-44.775L36.816,-43.262L36.816,-18.799C36.816,-17.985 36.54,-17.31 35.986,-16.773C35.433,-16.235 34.733,-15.967 33.887,-15.967C33.04,-15.967 32.349,-16.235 31.811,-16.773C31.274,-17.31 31.006,-17.985 31.006,-18.799L31.006,-43.213L31.055,-44.775L30.078,-43.603L26.318,-39.795C25.798,-39.209 25.146,-38.916 24.365,-38.916C23.519,-38.916 22.819,-39.185 22.266,-39.722C21.712,-40.259 21.436,-40.951 21.436,-41.797C21.436,-42.415 21.729,-43.099 22.315,-43.848L31.738,-53.516Z" style="fill:white;fill-rule:nonzero;"/>
    </g>
</svg>
