<?xml version="1.0" encoding="UTF-8" standalone="no"?>
<!DOCTYPE svg PUBLIC "-//W3C//DTD SVG 1.1//EN" "http://www.w3.org/Graphics/SVG/1.1/DTD/svg11.dtd">
<svg width="100%" height="100%" viewBox="0 0 52 55" version="1.1" xmlns="http://www.w3.org/2000/svg" xmlns:xlink="http://www.w3.org/1999/xlink" xml:space="preserve" xmlns:serif="http://www.serif.com/" style="fill-rule:evenodd;clip-rule:evenodd;stroke-linejoin:round;stroke-miterlimit:2;">
    <g transform="matrix(1,0,0,1,-1.03044,10.2139)">
        <path d="M37.333,23.083L43.375,26.542C43.486,26.597 43.542,26.66 43.542,26.729C43.542,26.813 43.486,26.882 43.375,26.938L27.521,36.021C27.174,36.215 26.868,36.313 26.604,36.313C26.326,36.313 26.014,36.215 25.667,36.021L9.813,26.938C9.715,26.882 9.667,26.813 9.667,26.729C9.667,26.66 9.715,26.597 9.813,26.542L16.354,22.813L12.854,20.833L7.646,23.854C6.813,24.354 6.215,24.816 5.854,25.24C5.493,25.663 5.313,26.16 5.313,26.729C5.313,27.313 5.493,27.816 5.854,28.24C6.215,28.663 6.813,29.125 7.646,29.625L23.958,39.083C24.458,39.375 24.917,39.59 25.333,39.729C25.75,39.868 26.174,39.938 26.604,39.938C27.021,39.938 27.441,39.868 27.865,39.729C28.288,39.59 28.75,39.375 29.25,39.083L45.542,29.625C46.389,29.125 46.993,28.663 47.354,28.24C47.715,27.816 47.896,27.313 47.896,26.729C47.896,26.16 47.715,25.663 47.354,25.24C46.993,24.816 46.389,24.354 45.542,23.854L40.583,20.958L37.333,23.083ZM36.875,13.229L43.375,16.938C43.486,16.993 43.542,17.063 43.542,17.146C43.542,17.229 43.486,17.299 43.375,17.354L27.521,26.417C27.174,26.611 26.868,26.708 26.604,26.708C26.326,26.708 26.014,26.611 25.667,26.417L9.813,17.354C9.715,17.299 9.667,17.229 9.667,17.146C9.667,17.063 9.715,16.993 9.813,16.938L16.833,12.917L13.5,10.875L7.646,14.25C6.813,14.75 6.215,15.215 5.854,15.646C5.493,16.076 5.313,16.576 5.313,17.146C5.313,17.715 5.493,18.215 5.854,18.646C6.215,19.076 6.813,19.535 7.646,20.021L23.958,29.5C24.458,29.792 24.917,30.007 25.333,30.146C25.75,30.285 26.174,30.354 26.604,30.354C27.021,30.354 27.441,30.285 27.865,30.146C28.288,30.007 28.75,29.792 29.25,29.5L45.542,20.021C46.389,19.535 46.993,19.076 47.354,18.646C47.715,18.215 47.896,17.715 47.896,17.146C47.896,16.576 47.715,16.076 47.354,15.646C46.993,15.215 46.389,14.75 45.542,14.25L40.104,11.083L36.875,13.229ZM26.604,20.083C27.021,20.083 27.441,20.014 27.865,19.875C28.288,19.736 28.75,19.521 29.25,19.229L45.542,9.771C46.389,9.271 46.993,8.809 47.354,8.385C47.715,7.962 47.896,7.458 47.896,6.875C47.896,6.306 47.715,5.809 47.354,5.385C46.993,4.962 46.389,4.5 45.542,4L29.25,-5.458C28.75,-5.75 28.288,-5.965 27.865,-6.104C27.441,-6.243 27.021,-6.313 26.604,-6.313C26.174,-6.313 25.75,-6.243 25.333,-6.104C24.917,-5.965 24.458,-5.75 23.958,-5.458L7.646,4C6.813,4.5 6.215,4.962 5.854,5.385C5.493,5.809 5.313,6.306 5.313,6.875C5.313,7.458 5.493,7.962 5.854,8.385C6.215,8.809 6.813,9.271 7.646,9.771L23.958,19.229C24.458,19.521 24.917,19.736 25.333,19.875C25.75,20.014 26.174,20.083 26.604,20.083ZM26.604,16.458C26.326,16.458 26.014,16.361 25.667,16.167L9.813,7.083C9.715,7.028 9.667,6.958 9.667,6.875C9.667,6.806 9.715,6.743 9.813,6.688L25.667,-2.396C26.014,-2.59 26.326,-2.688 26.604,-2.688C26.868,-2.688 27.174,-2.59 27.521,-2.396L43.375,6.688C43.486,6.743 43.542,6.806 43.542,6.875C43.542,6.958 43.486,7.028 43.375,7.083L27.521,16.167C27.174,16.361 26.868,16.458 26.604,16.458Z" style="fill-rule:nonzero;"/>
    </g>
</svg>
